<mxfile host="app.diagrams.net" modified="2022-06-14T11:30:08.608Z" agent="5.0 (Windows NT 10.0; Win64; x64) AppleWebKit/537.36 (KHTML, like Gecko) Chrome/97.0.4692.99 Safari/537.36" etag="MyZGDvsfRya6GRxrSs2c" version="20.0.1" type="github">
  <diagram name="Page-1" id="d66fe2ae-3e9f-cf2f-6d29-e24063ad5d60">
    <mxGraphModel dx="868" dy="450" grid="1" gridSize="10" guides="1" tooltips="1" connect="1" arrows="1" fold="1" page="1" pageScale="1" pageWidth="1100" pageHeight="850" background="none" math="0" shadow="0">
      <root>
        <mxCell id="0" />
        <mxCell id="1" parent="0" />
        <mxCell id="qbp-uxOTBGgb31UPn4IN-1" value="" style="whiteSpace=wrap;html=1;fontSize=14;verticalAlign=top;fillColor=#f9f7ed;strokeColor=#36393d;" vertex="1" parent="1">
          <mxGeometry x="100" y="98" width="250" height="492" as="geometry" />
        </mxCell>
        <mxCell id="qbp-uxOTBGgb31UPn4IN-9" style="edgeStyle=orthogonalEdgeStyle;rounded=0;orthogonalLoop=1;jettySize=auto;html=1;fontFamily=Helvetica;" edge="1" parent="1" source="qbp-uxOTBGgb31UPn4IN-5" target="qbp-uxOTBGgb31UPn4IN-6">
          <mxGeometry relative="1" as="geometry" />
        </mxCell>
        <mxCell id="qbp-uxOTBGgb31UPn4IN-5" value="&lt;br&gt;&lt;br&gt;银联云数据库&lt;br&gt;binlog" style="strokeWidth=2;html=1;shape=mxgraph.flowchart.database;whiteSpace=wrap;fontFamily=Helvetica;fillColor=#ffff88;strokeColor=#36393d;" vertex="1" parent="1">
          <mxGeometry x="150" y="210" width="120.5" height="110" as="geometry" />
        </mxCell>
        <mxCell id="qbp-uxOTBGgb31UPn4IN-6" value="morray" style="strokeWidth=2;html=1;shape=mxgraph.flowchart.direct_data;whiteSpace=wrap;fontFamily=Helvetica;fillColor=#cdeb8b;strokeColor=#36393d;" vertex="1" parent="1">
          <mxGeometry x="160.25" y="480" width="100" height="60" as="geometry" />
        </mxCell>
        <mxCell id="qbp-uxOTBGgb31UPn4IN-10" value="" style="whiteSpace=wrap;html=1;fontSize=14;verticalAlign=top;fillColor=#cce5ff;strokeColor=#36393d;" vertex="1" parent="1">
          <mxGeometry x="440" y="98" width="380" height="492" as="geometry" />
        </mxCell>
        <mxCell id="qbp-uxOTBGgb31UPn4IN-11" style="edgeStyle=orthogonalEdgeStyle;rounded=0;orthogonalLoop=1;jettySize=auto;html=1;fontFamily=Helvetica;" edge="1" source="qbp-uxOTBGgb31UPn4IN-12" target="qbp-uxOTBGgb31UPn4IN-13" parent="1">
          <mxGeometry relative="1" as="geometry" />
        </mxCell>
        <mxCell id="qbp-uxOTBGgb31UPn4IN-12" value="&lt;br&gt;&lt;br&gt;银联云数据库&lt;br&gt;binlog" style="strokeWidth=2;html=1;shape=mxgraph.flowchart.database;whiteSpace=wrap;fontFamily=Helvetica;fillColor=#ffff88;strokeColor=#36393d;" vertex="1" parent="1">
          <mxGeometry x="674.75" y="170" width="120.5" height="110" as="geometry" />
        </mxCell>
        <mxCell id="qbp-uxOTBGgb31UPn4IN-23" style="edgeStyle=orthogonalEdgeStyle;rounded=0;orthogonalLoop=1;jettySize=auto;html=1;entryX=0.75;entryY=1;entryDx=0;entryDy=0;fontFamily=Helvetica;" edge="1" parent="1" source="qbp-uxOTBGgb31UPn4IN-13" target="qbp-uxOTBGgb31UPn4IN-14">
          <mxGeometry relative="1" as="geometry" />
        </mxCell>
        <mxCell id="qbp-uxOTBGgb31UPn4IN-13" value="morray" style="strokeWidth=2;html=1;shape=mxgraph.flowchart.direct_data;whiteSpace=wrap;fontFamily=Helvetica;fillColor=#cdeb8b;strokeColor=#36393d;" vertex="1" parent="1">
          <mxGeometry x="685" y="480" width="100" height="60" as="geometry" />
        </mxCell>
        <mxCell id="qbp-uxOTBGgb31UPn4IN-24" style="edgeStyle=orthogonalEdgeStyle;rounded=0;orthogonalLoop=1;jettySize=auto;html=1;entryX=0.5;entryY=1;entryDx=0;entryDy=0;entryPerimeter=0;fontFamily=Helvetica;" edge="1" parent="1" source="qbp-uxOTBGgb31UPn4IN-14" target="qbp-uxOTBGgb31UPn4IN-17">
          <mxGeometry relative="1" as="geometry" />
        </mxCell>
        <mxCell id="qbp-uxOTBGgb31UPn4IN-14" value="消息队列&lt;br&gt;kafka" style="rounded=1;whiteSpace=wrap;html=1;fontFamily=Helvetica;strokeColor=#36393d;dashed=1;fillColor=#ffff88;" vertex="1" parent="1">
          <mxGeometry x="530" y="350" width="120" height="60" as="geometry" />
        </mxCell>
        <mxCell id="qbp-uxOTBGgb31UPn4IN-16" value="交易通知数据" style="text;html=1;align=center;verticalAlign=middle;resizable=0;points=[];autosize=1;strokeColor=none;fillColor=none;fontFamily=Helvetica;" vertex="1" parent="1">
          <mxGeometry x="585" y="490" width="90" height="20" as="geometry" />
        </mxCell>
        <mxCell id="qbp-uxOTBGgb31UPn4IN-25" style="edgeStyle=orthogonalEdgeStyle;rounded=0;orthogonalLoop=1;jettySize=auto;html=1;fontFamily=Helvetica;" edge="1" parent="1" source="qbp-uxOTBGgb31UPn4IN-17" target="qbp-uxOTBGgb31UPn4IN-12">
          <mxGeometry relative="1" as="geometry" />
        </mxCell>
        <mxCell id="qbp-uxOTBGgb31UPn4IN-26" style="edgeStyle=orthogonalEdgeStyle;rounded=0;orthogonalLoop=1;jettySize=auto;html=1;entryX=1;entryY=0.5;entryDx=0;entryDy=0;entryPerimeter=0;fontFamily=Helvetica;" edge="1" parent="1" source="qbp-uxOTBGgb31UPn4IN-17" target="qbp-uxOTBGgb31UPn4IN-5">
          <mxGeometry relative="1" as="geometry" />
        </mxCell>
        <mxCell id="qbp-uxOTBGgb31UPn4IN-17" value="同步进程" style="strokeWidth=2;html=1;shape=mxgraph.flowchart.direct_data;whiteSpace=wrap;fontFamily=Helvetica;dashed=1;" vertex="1" parent="1">
          <mxGeometry x="470" y="235" width="100" height="60" as="geometry" />
        </mxCell>
        <mxCell id="qbp-uxOTBGgb31UPn4IN-21" style="edgeStyle=orthogonalEdgeStyle;rounded=0;orthogonalLoop=1;jettySize=auto;html=1;entryX=0.5;entryY=1;entryDx=0;entryDy=0;fontFamily=Helvetica;" edge="1" parent="1" source="qbp-uxOTBGgb31UPn4IN-18" target="qbp-uxOTBGgb31UPn4IN-14">
          <mxGeometry relative="1" as="geometry" />
        </mxCell>
        <mxCell id="qbp-uxOTBGgb31UPn4IN-18" value="morray" style="strokeWidth=2;html=1;shape=mxgraph.flowchart.direct_data;whiteSpace=wrap;fontFamily=Helvetica;fillColor=#cdeb8b;strokeColor=#36393d;" vertex="1" parent="1">
          <mxGeometry x="460" y="480" width="100" height="60" as="geometry" />
        </mxCell>
        <mxCell id="qbp-uxOTBGgb31UPn4IN-20" value="商户数据" style="text;html=1;align=center;verticalAlign=middle;resizable=0;points=[];autosize=1;strokeColor=none;fillColor=none;fontFamily=Helvetica;" vertex="1" parent="1">
          <mxGeometry x="320" y="490" width="60" height="20" as="geometry" />
        </mxCell>
        <mxCell id="qbp-uxOTBGgb31UPn4IN-19" style="edgeStyle=orthogonalEdgeStyle;rounded=0;orthogonalLoop=1;jettySize=auto;html=1;fontFamily=Helvetica;" edge="1" parent="1" source="qbp-uxOTBGgb31UPn4IN-6" target="qbp-uxOTBGgb31UPn4IN-18">
          <mxGeometry relative="1" as="geometry" />
        </mxCell>
        <mxCell id="qbp-uxOTBGgb31UPn4IN-22" value="商户数据" style="text;html=1;align=center;verticalAlign=middle;resizable=0;points=[];autosize=1;strokeColor=none;fillColor=none;fontFamily=Helvetica;" vertex="1" parent="1">
          <mxGeometry x="510" y="440" width="60" height="20" as="geometry" />
        </mxCell>
        <mxCell id="qbp-uxOTBGgb31UPn4IN-27" value="同步交易通知数据" style="text;html=1;align=center;verticalAlign=middle;resizable=0;points=[];autosize=1;strokeColor=none;fillColor=none;fontFamily=Helvetica;" vertex="1" parent="1">
          <mxGeometry x="335" y="240" width="110" height="20" as="geometry" />
        </mxCell>
        <mxCell id="qbp-uxOTBGgb31UPn4IN-28" value="同步商户数据" style="text;html=1;align=center;verticalAlign=middle;resizable=0;points=[];autosize=1;strokeColor=none;fillColor=none;fontFamily=Helvetica;" vertex="1" parent="1">
          <mxGeometry x="565" y="210" width="90" height="20" as="geometry" />
        </mxCell>
        <mxCell id="qbp-uxOTBGgb31UPn4IN-29" value="银联云" style="text;strokeColor=none;fillColor=none;html=1;fontSize=24;fontStyle=1;verticalAlign=middle;align=center;dashed=1;fontFamily=Helvetica;" vertex="1" parent="1">
          <mxGeometry x="170.5" y="98" width="100" height="40" as="geometry" />
        </mxCell>
        <mxCell id="qbp-uxOTBGgb31UPn4IN-30" value="数据中心" style="text;strokeColor=none;fillColor=none;html=1;fontSize=24;fontStyle=1;verticalAlign=middle;align=center;dashed=1;fontFamily=Helvetica;" vertex="1" parent="1">
          <mxGeometry x="575" y="98" width="100" height="40" as="geometry" />
        </mxCell>
      </root>
    </mxGraphModel>
  </diagram>
</mxfile>
